<svg id="visual" viewBox="0 0 900 600" width="900" height="600" xmlns="http://www.w3.org/2000/svg" xmlns:xlink="http://www.w3.org/1999/xlink" version="1.1"><rect x="0" y="0" width="900" height="600" fill="#ffffff"></rect><path d="M0 421L21.5 413C43 405 86 389 128.8 385.5C171.7 382 214.3 391 257.2 394.5C300 398 343 396 385.8 402.2C428.7 408.3 471.3 422.7 514.2 417.7C557 412.7 600 388.3 642.8 380.2C685.7 372 728.3 380 771.2 388.5C814 397 857 406 878.5 410.5L900 415L900 601L878.5 601C857 601 814 601 771.2 601C728.3 601 685.7 601 642.8 601C600 601 557 601 514.2 601C471.3 601 428.7 601 385.8 601C343 601 300 601 257.2 601C214.3 601 171.7 601 128.8 601C86 601 43 601 21.5 601L0 601Z" fill="#0066ff"></path><path d="M0 402L21.5 404.8C43 407.7 86 413.3 128.8 414.8C171.7 416.3 214.3 413.7 257.2 417C300 420.3 343 429.7 385.8 437.5C428.7 445.3 471.3 451.7 514.2 448C557 444.3 600 430.7 642.8 421.8C685.7 413 728.3 409 771.2 408.3C814 407.7 857 410.3 878.5 411.7L900 413L900 601L878.5 601C857 601 814 601 771.2 601C728.3 601 685.7 601 642.8 601C600 601 557 601 514.2 601C471.3 601 428.7 601 385.8 601C343 601 300 601 257.2 601C214.3 601 171.7 601 128.8 601C86 601 43 601 21.5 601L0 601Z" fill="#007aff"></path><path d="M0 459L21.5 461.7C43 464.3 86 469.7 128.8 478.2C171.7 486.7 214.3 498.3 257.2 503.5C300 508.7 343 507.3 385.8 502C428.7 496.7 471.3 487.3 514.2 488C557 488.7 600 499.3 642.8 498C685.7 496.7 728.3 483.3 771.2 483.5C814 483.7 857 497.3 878.5 504.2L900 511L900 601L878.5 601C857 601 814 601 771.2 601C728.3 601 685.7 601 642.8 601C600 601 557 601 514.2 601C471.3 601 428.7 601 385.8 601C343 601 300 601 257.2 601C214.3 601 171.7 601 128.8 601C86 601 43 601 21.5 601L0 601Z" fill="#008cff"></path><path d="M0 522L21.5 515.5C43 509 86 496 128.8 497C171.7 498 214.3 513 257.2 513.2C300 513.3 343 498.7 385.8 491.5C428.7 484.3 471.3 484.7 514.2 484.3C557 484 600 483 642.8 486C685.7 489 728.3 496 771.2 504.2C814 512.3 857 521.7 878.5 526.3L900 531L900 601L878.5 601C857 601 814 601 771.2 601C728.3 601 685.7 601 642.8 601C600 601 557 601 514.2 601C471.3 601 428.7 601 385.8 601C343 601 300 601 257.2 601C214.3 601 171.7 601 128.8 601C86 601 43 601 21.5 601L0 601Z" fill="#2b9dfc"></path><path d="M0 548L21.5 549.7C43 551.3 86 554.7 128.8 551.8C171.7 549 214.3 540 257.2 542C300 544 343 557 385.8 562.2C428.7 567.3 471.3 564.7 514.2 557.8C557 551 600 540 642.8 534.8C685.7 529.7 728.3 530.3 771.2 532.7C814 535 857 539 878.5 541L900 543L900 601L878.5 601C857 601 814 601 771.2 601C728.3 601 685.7 601 642.8 601C600 601 557 601 514.2 601C471.3 601 428.7 601 385.8 601C343 601 300 601 257.2 601C214.3 601 171.7 601 128.8 601C86 601 43 601 21.5 601L0 601Z" fill="#4facf7"></path></svg>