<svg id="visual" viewBox="0 0 900 600" width="900" height="600" xmlns="http://www.w3.org/2000/svg" xmlns:xlink="http://www.w3.org/1999/xlink" version="1.1"><rect x="0" y="0" width="900" height="600" fill="#ffffff"></rect><path d="M0 209L129 251L257 271L386 311L514 213L643 308L771 287L900 291L900 601L771 601L643 601L514 601L386 601L257 601L129 601L0 601Z" fill="#4facf7"></path><path d="M0 363L129 288L257 286L386 307L514 340L643 343L771 280L900 239L900 601L771 601L643 601L514 601L386 601L257 601L129 601L0 601Z" fill="#2b9dfc"></path><path d="M0 307L129 386L257 312L386 358L514 351L643 315L771 399L900 345L900 601L771 601L643 601L514 601L386 601L257 601L129 601L0 601Z" fill="#008cff"></path><path d="M0 454L129 407L257 425L386 485L514 440L643 488L771 407L900 471L900 601L771 601L643 601L514 601L386 601L257 601L129 601L0 601Z" fill="#007aff"></path><path d="M0 487L129 486L257 531L386 492L514 473L643 469L771 480L900 485L900 601L771 601L643 601L514 601L386 601L257 601L129 601L0 601Z" fill="#0066ff"></path></svg>