<svg id="visual" viewBox="0 0 960 540" width="960" height="540" xmlns="http://www.w3.org/2000/svg" xmlns:xlink="http://www.w3.org/1999/xlink" version="1.1"><path d="M0 60L14.5 61C29 62 58 64 87.2 76.7C116.3 89.3 145.7 112.7 174.8 125.2C204 137.7 233 139.3 262 138.5C291 137.7 320 134.3 349 132.7C378 131 407 131 436.2 130C465.3 129 494.7 127 523.8 122.5C553 118 582 111 611 107.5C640 104 669 104 698 103C727 102 756 100 785.2 96.3C814.3 92.7 843.7 87.3 872.8 96.3C902 105.3 931 128.7 945.5 140.3L960 152L960 0L945.5 0C931 0 902 0 872.8 0C843.7 0 814.3 0 785.2 0C756 0 727 0 698 0C669 0 640 0 611 0C582 0 553 0 523.8 0C494.7 0 465.3 0 436.2 0C407 0 378 0 349 0C320 0 291 0 262 0C233 0 204 0 174.8 0C145.7 0 116.3 0 87.2 0C58 0 29 0 14.5 0L0 0Z" fill="#6198ff"></path><path d="M0 217L14.5 212.5C29 208 58 199 87.2 201.7C116.3 204.3 145.7 218.7 174.8 230.3C204 242 233 251 262 262.7C291 274.3 320 288.7 349 302.2C378 315.7 407 328.3 436.2 327.5C465.3 326.7 494.7 312.3 523.8 288C553 263.7 582 229.3 611 228.5C640 227.7 669 260.3 698 258.7C727 257 756 221 785.2 206.5C814.3 192 843.7 199 872.8 208C902 217 931 228 945.5 233.5L960 239L960 150L945.5 138.3C931 126.7 902 103.3 872.8 94.3C843.7 85.3 814.3 90.7 785.2 94.3C756 98 727 100 698 101C669 102 640 102 611 105.5C582 109 553 116 523.8 120.5C494.7 125 465.3 127 436.2 128C407 129 378 129 349 130.7C320 132.3 291 135.7 262 136.5C233 137.3 204 135.7 174.8 123.2C145.7 110.7 116.3 87.3 87.2 74.7C58 62 29 60 14.5 59L0 58Z" fill="#3c80ff"></path><path d="M0 347L14.5 364C29 381 58 415 87.2 429.3C116.3 443.7 145.7 438.3 174.8 431.2C204 424 233 415 262 406.8C291 398.7 320 391.3 349 391.3C378 391.3 407 398.7 436.2 399.7C465.3 400.7 494.7 395.3 523.8 399C553 402.7 582 415.3 611 415.3C640 415.3 669 402.7 698 394.5C727 386.3 756 382.7 785.2 389.8C814.3 397 843.7 415 872.8 425.8C902 436.7 931 440.3 945.5 442.2L960 444L960 237L945.5 231.5C931 226 902 215 872.8 206C843.7 197 814.3 190 785.2 204.5C756 219 727 255 698 256.7C669 258.3 640 225.7 611 226.5C582 227.3 553 261.7 523.8 286C494.7 310.3 465.3 324.7 436.2 325.5C407 326.3 378 313.7 349 300.2C320 286.7 291 272.3 262 260.7C233 249 204 240 174.8 228.3C145.7 216.7 116.3 202.3 87.2 199.7C58 197 29 206 14.5 210.5L0 215Z" fill="#0066ff"></path><path d="M0 433L14.5 444.7C29 456.3 58 479.7 87.2 487.8C116.3 496 145.7 489 174.8 483.7C204 478.3 233 474.7 262 464.7C291 454.7 320 438.3 349 437.3C378 436.3 407 450.7 436.2 451.7C465.3 452.7 494.7 440.3 523.8 445.8C553 451.3 582 474.7 611 483.7C640 492.7 669 487.3 698 478.3C727 469.3 756 456.7 785.2 459.3C814.3 462 843.7 480 872.8 485.3C902 490.7 931 483.3 945.5 479.7L960 476L960 442L945.5 440.2C931 438.3 902 434.7 872.8 423.8C843.7 413 814.3 395 785.2 387.8C756 380.7 727 384.3 698 392.5C669 400.7 640 413.3 611 413.3C582 413.3 553 400.7 523.8 397C494.7 393.3 465.3 398.7 436.2 397.7C407 396.7 378 389.3 349 389.3C320 389.3 291 396.7 262 404.8C233 413 204 422 174.8 429.2C145.7 436.3 116.3 441.7 87.2 427.3C58 413 29 379 14.5 362L0 345Z" fill="#0059dd"></path><path d="M0 541L14.5 541C29 541 58 541 87.2 541C116.3 541 145.7 541 174.8 541C204 541 233 541 262 541C291 541 320 541 349 541C378 541 407 541 436.2 541C465.3 541 494.7 541 523.8 541C553 541 582 541 611 541C640 541 669 541 698 541C727 541 756 541 785.2 541C814.3 541 843.7 541 872.8 541C902 541 931 541 945.5 541L960 541L960 474L945.5 477.7C931 481.3 902 488.7 872.8 483.3C843.7 478 814.3 460 785.2 457.3C756 454.7 727 467.3 698 476.3C669 485.3 640 490.7 611 481.7C582 472.7 553 449.3 523.8 443.8C494.7 438.3 465.3 450.7 436.2 449.7C407 448.7 378 434.3 349 435.3C320 436.3 291 452.7 262 462.7C233 472.7 204 476.3 174.8 481.7C145.7 487 116.3 494 87.2 485.8C58 477.7 29 454.3 14.5 442.7L0 431Z" fill="#004cbb"></path></svg>