<svg id="visual" viewBox="0 0 960 540" width="960" height="540" xmlns="http://www.w3.org/2000/svg" xmlns:xlink="http://www.w3.org/1999/xlink" version="1.1"><rect x="0" y="0" width="960" height="540" fill="#FFFFFF"></rect><path d="M0 435L22.8 423.5C45.7 412 91.3 389 137 389.5C182.7 390 228.3 414 274 424C319.7 434 365.3 430 411.2 422.7C457 415.3 503 404.7 548.8 405.2C594.7 405.7 640.3 417.3 686 430C731.7 442.7 777.3 456.3 823 449C868.7 441.7 914.3 413.3 937.2 399.2L960 385L960 541L937.2 541C914.3 541 868.7 541 823 541C777.3 541 731.7 541 686 541C640.3 541 594.7 541 548.8 541C503 541 457 541 411.2 541C365.3 541 319.7 541 274 541C228.3 541 182.7 541 137 541C91.3 541 45.7 541 22.8 541L0 541Z" fill="#0099ff" stroke-linecap="round" stroke-linejoin="miter"></path></svg>